<svg width="123" height="87" viewBox="0 0 123 87" fill="none" xmlns="http://www.w3.org/2000/svg">
<path d="M1.55899 31.0302V21.8495H17.5531V64H7.2753V31.0302H1.55899ZM45.1517 33.2243C44.8437 31.8001 44.3048 30.7415 43.535 30.0486C42.7651 29.3172 41.668 28.9515 40.2437 28.9515C38.0496 28.9515 36.4714 29.9139 35.509 31.8386C34.5467 33.7248 34.0463 36.7273 34.0078 40.8461C34.8546 39.4988 36.0672 38.4402 37.6454 37.6703C39.2622 36.9005 41.0329 36.5155 42.9575 36.5155C46.7299 36.5155 49.7517 37.7088 52.0228 40.0954C54.3324 42.4821 55.4872 45.8118 55.4872 50.0845C55.4872 52.8946 54.9098 55.3582 53.755 57.4753C52.6387 59.5925 50.9835 61.2477 48.7893 62.441C46.6337 63.6343 44.0739 64.231 41.1099 64.231C35.1818 64.231 31.063 62.3833 28.7534 58.6879C26.4438 54.954 25.289 49.6034 25.289 42.636C25.289 35.3222 26.5015 29.8946 28.9266 26.3532C31.3902 22.7733 35.3166 20.9834 40.7057 20.9834C43.5927 20.9834 46.0178 21.5608 47.981 22.7156C49.9826 23.8319 51.4839 25.3139 52.4847 27.1616C53.5241 29.0093 54.14 31.0302 54.3324 33.2243H45.1517ZM40.5902 44.3105C38.935 44.3105 37.5492 44.8109 36.4329 45.8118C35.3551 46.7741 34.8161 48.1599 34.8161 49.9691C34.8161 51.8168 35.3166 53.2603 36.3174 54.2996C37.3567 55.3389 38.8195 55.8586 40.7057 55.8586C42.3994 55.8586 43.7274 55.3582 44.6898 54.3573C45.6906 53.318 46.191 51.913 46.191 50.1423C46.191 48.3331 45.7098 46.9088 44.7475 45.8695C43.7852 44.8302 42.3994 44.3105 40.5902 44.3105Z" fill="url(#paint0_linear_1015_607)"/>
<path d="M71.3383 39.313L64.9645 30.9406V39.313H60.3462V20.3536H64.9645V28.672L71.2843 20.3536H76.7129L69.3668 29.6443L76.9829 39.313H71.3383ZM95.5984 20.3536V39.313H90.9801V31.5078H83.796V39.313H79.1777V20.3536H83.796V27.7807H90.9801V20.3536H95.5984ZM103.254 35.5049H109.789V39.313H98.0951V35.6399L104.361 28.0508H98.1491V24.2427H109.654V27.9158L103.254 35.5049Z" fill="url(#paint1_linear_1015_607)"/>
<path d="M64.2585 61.0422H70.6053V63.5269H61.1796V44.7565H64.2585V61.0422ZM72.1538 56.0187C72.1538 54.5243 72.4599 53.2009 73.0721 52.0486C73.7022 50.8963 74.5485 50.005 75.6108 49.3749C76.6911 48.7267 77.8794 48.4026 79.1758 48.4026C80.3461 48.4026 81.3634 48.6366 82.2276 49.1048C83.1099 49.5549 83.8121 50.1221 84.3342 50.8063V48.6456H87.4401V63.5269H84.3342V61.3122C83.8121 62.0144 83.1009 62.5996 82.2006 63.0677C81.3004 63.5359 80.2741 63.7699 79.1218 63.7699C77.8434 63.7699 76.6731 63.4458 75.6108 62.7976C74.5485 62.1315 73.7022 61.2132 73.0721 60.0429C72.4599 58.8545 72.1538 57.5132 72.1538 56.0187ZM84.3342 56.0727C84.3342 55.0465 84.1182 54.1552 83.6861 53.399C83.2719 52.6428 82.7228 52.0666 82.0386 51.6705C81.3544 51.2744 80.6162 51.0763 79.824 51.0763C79.0317 51.0763 78.2935 51.2744 77.6093 51.6705C76.9251 52.0486 76.367 52.6158 75.9349 53.372C75.5208 54.1102 75.3137 54.9924 75.3137 56.0187C75.3137 57.045 75.5208 57.9453 75.9349 58.7195C76.367 59.4937 76.9251 60.0879 77.6093 60.502C78.3115 60.8981 79.0498 61.0962 79.824 61.0962C80.6162 61.0962 81.3544 60.8981 82.0386 60.502C82.7228 60.1059 83.2719 59.5297 83.6861 58.7735C84.1182 57.9993 84.3342 57.099 84.3342 56.0727ZM94.563 50.8603C95.0851 50.1401 95.7963 49.5549 96.6966 49.1048C97.6148 48.6366 98.6321 48.4026 99.7484 48.4026C101.063 48.4026 102.251 48.7177 103.313 49.3478C104.376 49.978 105.213 50.8783 105.825 52.0486C106.437 53.2009 106.743 54.5243 106.743 56.0187C106.743 57.5132 106.437 58.8545 105.825 60.0429C105.213 61.2132 104.367 62.1315 103.286 62.7976C102.224 63.4458 101.045 63.7699 99.7484 63.7699C98.5961 63.7699 97.5698 63.5449 96.6696 63.0947C95.7873 62.6446 95.0851 62.0684 94.563 61.3662V63.5269H91.4841V43.5412H94.563V50.8603ZM103.611 56.0187C103.611 54.9924 103.394 54.1102 102.962 53.372C102.548 52.6158 101.99 52.0486 101.288 51.6705C100.604 51.2744 99.8655 51.0763 99.0732 51.0763C98.299 51.0763 97.5608 51.2744 96.8586 51.6705C96.1744 52.0666 95.6163 52.6428 95.1841 53.399C94.77 54.1552 94.563 55.0465 94.563 56.0727C94.563 57.099 94.77 57.9993 95.1841 58.7735C95.6163 59.5297 96.1744 60.1059 96.8586 60.502C97.5608 60.8981 98.299 61.0962 99.0732 61.0962C99.8655 61.0962 100.604 60.8981 101.288 60.502C101.99 60.0879 102.548 59.4937 102.962 58.7195C103.394 57.9453 103.611 57.045 103.611 56.0187ZM115.19 63.7699C114.019 63.7699 112.966 63.5629 112.03 63.1487C111.111 62.7166 110.382 62.1405 109.842 61.4203C109.302 60.6821 109.014 59.8628 108.978 58.9626H112.165C112.219 59.5927 112.516 60.1239 113.056 60.556C113.614 60.9701 114.307 61.1772 115.136 61.1772C116 61.1772 116.666 61.0151 117.134 60.6911C117.62 60.349 117.863 59.9168 117.863 59.3947C117.863 58.8365 117.593 58.4224 117.053 58.1523C116.531 57.8823 115.694 57.5852 114.541 57.2611C113.425 56.955 112.516 56.6579 111.814 56.3698C111.111 56.0818 110.499 55.6406 109.977 55.0465C109.473 54.4523 109.221 53.6691 109.221 52.6968C109.221 51.9046 109.455 51.1844 109.923 50.5362C110.391 49.87 111.057 49.3478 111.922 48.9697C112.804 48.5916 113.812 48.4026 114.947 48.4026C116.639 48.4026 117.998 48.8347 119.025 49.6989C120.069 50.5452 120.627 51.7065 120.699 53.1829H117.62C117.566 52.5167 117.296 51.9856 116.81 51.5895C116.324 51.1934 115.667 50.9953 114.839 50.9953C114.028 50.9953 113.407 51.1484 112.975 51.4544C112.543 51.7605 112.327 52.1656 112.327 52.6698C112.327 53.0659 112.471 53.399 112.759 53.6691C113.047 53.9391 113.398 54.1552 113.812 54.3173C114.226 54.4613 114.839 54.6503 115.649 54.8844C116.729 55.1725 117.611 55.4696 118.295 55.7757C118.998 56.0637 119.601 56.4959 120.105 57.072C120.609 57.6482 120.87 58.4134 120.888 59.3677C120.888 60.2139 120.654 60.9701 120.186 61.6363C119.718 62.3025 119.052 62.8247 118.187 63.2028C117.341 63.5809 116.342 63.7699 115.19 63.7699Z" fill="#1E1E1E"/>
<defs>
<linearGradient id="paint0_linear_1015_607" x1="59" y1="42.92" x2="1.13582e-06" y2="42.92" gradientUnits="userSpaceOnUse">
<stop stop-color="#7800D3"/>
<stop offset="0.495" stop-color="#3AC8D9"/>
<stop offset="1" stop-color="#006EFF"/>
</linearGradient>
<linearGradient id="paint1_linear_1015_607" x1="110.672" y1="29.813" x2="58.6718" y2="29.813" gradientUnits="userSpaceOnUse">
<stop stop-color="#006EFF"/>
<stop offset="1" stop-color="#7800D3"/>
</linearGradient>
</defs>
</svg>
